<svg width="700" height="700" viewBox="0 0 700 700" fill="none" xmlns="http://www.w3.org/2000/svg">
<g clip-path="url(#clip0_92_2)">
<rect width="700" height="700" fill="url(#paint0_linear_92_2)"/>
<g clip-path="url(#clip1_92_2)">
<path opacity="0.5" d="M580.35 327.39L696.43 301.67C700.28 300.82 703.06 297.47 703.18 293.53L705.85 208.3C706 203.32 701.92 199.25 696.94 199.41L578.32 203.36C573.68 203.52 569.99 207.32 569.99 211.97L569.87 318.96C569.87 324.48 574.97 328.58 580.35 327.39Z" fill="white"/>
<path opacity="0.5" d="M770.58 305.75L369.66 407.97C369.4 408.04 369.15 408.13 368.9 408.21L392.81 362.75C393.36 361.7 394.79 361.57 395.56 362.47C397.49 364.75 400.58 366.05 404 365.3L541.13 335.17C545.11 334.29 547.95 330.75 547.93 326.68L547.49 213.24C547.47 208.36 543.43 204.46 538.56 204.61L477.81 206.54H477.76C477.61 206.54 477.46 206.52 477.32 206.49L491.74 183.27L478.5 188.7L337.14 441.41L82.3701 365.12L123.94 300.33L89.0301 360.23L83.6401 358.46C82.4601 361.05 83.3801 363.65 85.6201 365.72L85.3401 366.16L86.6101 366.55C88.0001 367.58 89.7401 368.44 91.7201 369.04L189.57 398.98L114.55 377.34L218.46 470.87L363.4 528.47L460.15 563.48L462.41 546.92L356.25 437.74L351.09 438.03L359.23 426.62C359.84 425.46 361.45 425.45 362.14 426.57C362.58 427.28 362.96 430.62 363.55 431.25L483.41 557.18C487.18 561.17 494.54 562.15 499.45 559.71L706.98 456.54C709.56 455.25 711.61 453.12 712.8 450.49L775.32 311.38C776.72 308.27 773.9 304.91 770.59 305.76L770.58 305.75Z" fill="white"/>
<path d="M790.86 183.28H489.55C475.3 183.28 462.19 191.09 455.41 203.63L333.19 429.83C332.03 431.99 329.5 433.03 327.15 432.31L93.9302 361.51C92.0202 360.93 91.1002 358.76 92.0302 357C96.9202 347.76 102.42 338.81 107.84 329.87C115.87 316.63 124.05 303.48 132.27 290.37C140.93 276.56 149.66 262.79 158.44 249.06C165.67 237.75 172.6 226.63 180.19 215.3C180.21 214.72 180.24 214.13 180.27 213.55C180.48 209.58 180.79 205.62 181.19 201.67C180.03 203.19 178.92 204.78 177.89 206.4L82.2402 355.42C80.5902 358.45 80.5402 362.19 82.3702 365.12C82.6002 365.49 82.8602 365.84 83.1502 366.16C83.7802 366.85 85.3602 368.09 86.2402 368.37L110.32 377.11C110.44 377.13 110.56 377.14 110.67 377.17L343.92 449.25C344.87 449.54 345.91 449.19 346.49 448.38L349.81 443.7C350.66 442.52 352.38 442.4 353.38 443.45L369.35 460.25C371 461.99 369.25 464.78 366.97 464.05L124.69 386.52C125.71 388.35 125.56 390.68 124.13 392.37L123.5 393.11C121.68 395.26 121.91 398.47 124.03 400.33L133.17 408.37C133.68 408.82 134.27 409.16 134.91 409.38L162.98 419.01C163.52 419.2 164.01 419.48 164.45 419.82L372.83 493.66C374.46 494.23 376.28 493.66 377.28 492.25L384.48 482.14C385.9 480.15 388.77 479.95 390.45 481.72L453.96 548.51C456.81 551.51 453.61 556.29 449.75 554.8L208.26 461.59C208.05 462.12 207.77 462.63 207.37 463.08L197.9 473.82C195.72 476.29 196.38 480.14 199.26 481.75L215.16 490.61C217.12 491.7 219.55 491.41 221.19 489.88L226.3 485.14C230.32 481.39 233.1 481.72 242.08 485.31L417.84 555.37C420.91 556.59 422.05 560.34 420.19 563.07L416.81 568.03C415.44 570.04 415.66 572.74 417.35 574.5L421.06 578.38C421.55 578.9 422.14 579.31 422.8 579.58L443.28 588.14C445.51 589.07 448.08 588.34 449.48 586.37L457.69 574.84C459.09 572.88 461.66 572.14 463.89 573.07L495.07 586.11C496.48 586.69 498.07 586.63 499.42 585.94L718.44 473.82C722.3 471.84 725.38 468.63 727.2 464.7L798.89 309.5C799.54 308.08 800.8 307.03 802.32 306.65C805.34 305.9 807.36 303.02 807.41 299.9L809.16 201.9C809.34 191.67 801.09 183.28 790.86 183.28ZM575.16 218.77C575.17 213.95 579 209.99 583.82 209.83L707.08 205.73C712.26 205.56 716.5 209.79 716.33 214.96L713.57 303.52C713.44 307.61 710.55 311.1 706.55 311.99L585.94 338.7C580.34 339.94 575.03 335.68 575.04 329.95L575.16 218.77ZM548.69 210.93C553.73 210.77 557.91 214.8 557.93 219.85L558.38 337.17C558.4 341.39 555.47 345.05 551.35 345.95L409.52 377.12C402.05 378.76 396.09 370.88 399.7 364.14L478.25 217.64C479.76 214.82 482.66 213.02 485.86 212.92L548.69 210.93ZM788.12 317.74L724.71 458.83C723.51 461.5 721.43 463.66 718.81 464.96L508.32 569.61C503.34 572.08 497.33 571.01 493.51 566.96L370.63 436.62C366.9 432.67 366.12 426.77 368.69 421.99C369.53 420.43 370.67 419.08 372.03 418.01C373.4 416.94 374.99 416.16 376.7 415.72L783.33 312.04C786.68 311.18 789.54 314.58 788.12 317.74ZM801.58 283.82C801.48 287.94 798.58 291.47 794.55 292.36L735.39 305.4C729.68 306.66 724.32 302.21 724.51 296.37L727.16 213.6C727.31 208.89 731.09 205.1 735.8 204.94L793.96 202.92C799.11 202.75 803.35 206.93 803.23 212.08L801.58 283.82ZM214.46 183.3C214.44 183.4 214.42 183.5 214.41 183.6C215.83 183.45 217.32 183.39 218.91 183.4C218.67 183.38 217.04 183.32 214.46 183.3Z" fill="white"/>
<path d="M216.66 183.28C217.69 183.28 214.41 183.75 214.46 183.3C214.44 183.4 214.42 183.5 214.41 183.6C208.13 224.01 210.1 265.2 220.59 307.82L167.57 325.43L145.27 302.71L187.68 288.64C181.56 263.77 179.09 239.34 180.19 215.3C180.21 214.72 180.24 214.13 180.27 213.55L85.5703 361.6L337.14 441.42L489.55 183.28H216.66ZM298.26 282.05L249.82 268.01L292.96 253.68L352.2 264.14L298.26 282.05Z" fill="url(#paint1_linear_92_2)"/>
<path fill-rule="evenodd" clip-rule="evenodd" d="M220.59 307.82C204.17 243.82 208.22 174.97 234.41 112L315.38 130.89C291.98 178.75 286.76 232.21 298.26 282.04L352.2 264.13L289.9 385.15L167.58 325.42L220.6 307.81H220.58L220.59 307.82Z" fill="white"/>
</g>
</g>
<defs>
<linearGradient id="paint0_linear_92_2" x1="350" y1="0" x2="350" y2="700" gradientUnits="userSpaceOnUse">
<stop stop-color="#F2664F"/>
<stop offset="1" stop-color="#F48492"/>
</linearGradient>
<linearGradient id="paint1_linear_92_2" x1="287.56" y1="416.29" x2="287.56" y2="205.8" gradientUnits="userSpaceOnUse">
<stop stop-color="white" stop-opacity="0"/>
<stop offset="1" stop-color="white" stop-opacity="0.3"/>
</linearGradient>
<clipPath id="clip0_92_2">
<rect width="700" height="700" fill="white"/>
</clipPath>
<clipPath id="clip1_92_2">
<rect width="728.16" height="476.54" fill="white" transform="translate(81 112)"/>
</clipPath>
</defs>
</svg>
